<svg xmlns="http://www.w3.org/2000/svg" viewBox="0 0 64 64">
  <defs>
    <linearGradient id="g" x1="0" x2="1" y1="0" y2="1">
      <stop offset="0%" stop-color="#7c3aed"/>
      <stop offset="100%" stop-color="#ec4899"/>
    </linearGradient>
  </defs>
  <rect width="64" height="64" rx="14" fill="#0b1021"/>
  <path fill="url(#g)" d="M32 10c-3 0-5.7 1.7-7 4.3L20 24h-6a3 3 0 0 0-3 3v8a3 3 0 0 0 3 3h4.2l-2.6 7.1c-.6 1.7.3 3.6 2 4.2l2.8 1c1.7.6 3.6-.3 4.2-2L27 38h3v8a3 3 0 0 0 3 3h6a3 3 0 0 0 3-3v-8h6a3 3 0 0 0 3-3v-8a3 3 0 0 0-3-3h-8l-4.2-8.4C37.8 11.7 35 10 32 10Zm0 6 3.4 6.8a3 3 0 0 0 2.7 1.7H46v4H18v-4h6.9a3 3 0 0 0 2.7-1.7L32 16Z"/>
  <circle cx="45" cy="46" r="4" fill="#10b981"/>
</svg>
